<svg width="73" height="20" viewBox="0 0 73 20" fill="none" xmlns="http://www.w3.org/2000/svg">
<path fill-rule="evenodd" clip-rule="evenodd" d="M9.48034 0.21875V4.46875V4.53125H3.86577C2.14063 4.53125 0.823242 5.84375 0.823242 7.5625V12.5312C0.823242 14.25 2.17199 15.5937 3.86577 15.5937H11.9269V5.03125V4.46875V0.21875H9.48034ZM9.48033 13.1562H4.55582C3.86576 13.1562 3.2698 12.625 3.2698 12V11.875V8.125C3.2698 7.5 3.86576 6.96875 4.55582 6.96875H9.48033V13.1562ZM16.2241 0.21875H13.7775V2.65625H16.2241V0.21875ZM16.2241 4.53125H13.7775V15.625H16.2241V4.53125ZM33.5069 4.53125H31.0604V15.625H33.5069V4.53125ZM21.1486 4.53125H29.2097V15.5937V16.8437C29.2097 18.5625 27.8924 19.875 26.1672 19.875H22.4033L20.5526 17.4375H23.0306H25.4772C26.1358 17.4375 26.7632 16.8125 26.7632 16.1562V15.5937H21.1486C19.4235 15.5937 18.1061 14.2812 18.1061 12.5625V7.59375C18.1061 5.90625 19.4548 4.53125 21.1486 4.53125ZM20.5526 11.9062C20.5526 12.5625 21.18 13.1875 21.8387 13.1875V13.1562H26.7632V12.8437V6.96875H21.8387C21.1486 6.96875 20.5526 7.5 20.5526 8.125V11.9062ZM31.0604 0.21875H33.5069V2.65625H31.0604V0.21875Z" fill="#424750"/>
<path fill-rule="evenodd" clip-rule="evenodd" d="M48.5002 0.21875H47.3396V15.625H48.5002V0.21875ZM72.119 7.15625C72.119 5.78125 71.0839 4.75 69.7038 4.75H63.4306V0.21875H62.27V15.625H69.6724C71.0212 15.625 72.0876 14.5625 72.0876 13.1875V9.5V7.15625H72.119ZM70.9585 12.6563C70.9585 13.625 70.833 14.4688 69.0138 14.4688H63.4306V5.90625H69.0138C70.8016 5.9375 70.9585 6.71875 70.9585 7.71875V9.6875V12.6563ZM36.7692 9.40625V7.65625C36.7692 6.6875 37.177 5.875 38.7139 5.84375H45.4263V4.6875H38.0238C36.6751 4.6875 35.6086 5.75 35.6086 7.125V9.375V9.40625V13.1562C35.6086 14.5312 36.6751 15.5937 38.0238 15.5937H45.4263V14.4375H38.7139C37.177 14.4375 36.7692 13.625 36.7692 12.625V9.4375V9.40625ZM59.1647 11.6875V4.75H60.2939V15.6562H52.8915C51.5114 15.6562 50.4763 14.625 50.4763 13.25V10.5625V7.1875V5.96875L51.6368 5.09375V10.5312V12.5312C51.6055 14.1875 52.5778 14.4688 53.5815 14.4688H59.1647V11.6875Z" fill="#424750"/>
</svg>
