<svg xmlns="http://www.w3.org/2000/svg" width="91" height="24" viewBox="0 0 91 24">
    <path fill="#EE384E" fill-rule="evenodd" d="M60.293 15.22h5.268V8.195h-5.268c-.91 0-1.756.85-1.756 1.756v3.512c0 .907.847 1.757 1.756 1.757zm21.073 0h5.268V8.195h-5.268c-.91 0-1.756.85-1.756 1.756v3.512c0 .907.847 1.757 1.756 1.757zM69.073 5.56v12.293c0 .387-.49.878-.878.878l-1.756.018c-.389 0-.878-.509-.878-.896v-.586l-.797.957c-.243.33-.841.507-1.252.507h-3.22c-2.824 0-5.268-2.45-5.268-5.269V9.951c0-2.818 2.444-5.268 5.269-5.268h7.902c.388 0 .878.491.878.878zm21.073 0v12.293c0 .387-.49.878-.878.878l-1.756.018c-.388 0-.878-.509-.878-.896v-.586l-.797.957c-.242.33-.841.507-1.252.507h-3.22c-2.824 0-5.267-2.45-5.267-5.269V9.951c0-2.818 2.443-5.268 5.268-5.268h7.902c.388 0 .878.491.878.878zM31.61 8.195H26.34c-.909 0-1.756.85-1.756 1.756v3.512c0 .908.847 1.757 1.756 1.757h5.269V8.195zm3.512-2.634v13.463c0 2.819-2.443 4.976-5.268 4.976h-2.715c-.404 0-.785-.189-1.028-.51l-1.545-2.04c-.257-.34-.114-.962.312-.962h4.976c.909 0 1.756-.557 1.756-1.464v-.292H26.34c-2.824 0-5.268-2.45-5.268-5.269V9.951c0-2.818 2.444-5.268 5.268-5.268h3.22c.403 0 .842.324 1.126.585l.923.878v-.585c0-.387.49-.878.878-.878h1.756c.388 0 .878.49.878.878zm-31.61 7.902c0 .907.847 1.757 1.756 1.757h5.269V8.195H5.268c-.909 0-1.756.85-1.756 1.756v3.512zM13.171 0c.388 0 .878.49.878.878v16.976c0 .387-.49.878-.878.878h-1.756c-.389 0-.878-.49-.878-.878v-.586l-.921.986c-.25.277-.73.478-1.128.478h-3.22C2.443 18.732 0 16.282 0 13.463V9.978C0 7.16 2.443 4.683 5.268 4.683h5.269V.878c0-.387.49-.878.878-.878h1.756zm36.292 11.707l4.888-6.187c.272-.337.032-.838-.402-.838h-2.795c-.212 0-.412.095-.546.258l-4.95 6.182V.878c0-.387-.49-.878-.878-.878h-1.756c-.388 0-.878.49-.878.878v16.976c0 .387.49.878.878.878h1.756c.39 0 .879-.49.879-.878v-5.561l4.952 6.195c.133.166.335.262.548.262h2.793c.433 0 .674-.501.402-.838l-4.89-6.205zM37.756 0c-.388 0-.878.49-.878.878v1.756c0 .388.49.878.878.878h1.756c.389 0 .878-.49.878-.878V.878c0-.387-.49-.878-.878-.878h-1.756zm0 4.683c-.388 0-.878.49-.878.878v12.293c0 .387.627.896 1.016.896l1.618-.018c.389 0 .878-.49.878-.878V5.56c0-.387-.49-.878-.878-.878h-1.756zM16.683 0c-.389 0-.878.49-.878.878v1.756c0 .388.49.878.878.878h1.756c.388 0 .878-.49.878-.878V.878c0-.387-.49-.878-.878-.878h-1.756zm0 4.683c-.389 0-.878.49-.878.878v12.293c0 .387.49.878.878.878h1.756c.388 0 .878-.49.878-.878V5.56c0-.387-.49-.878-.878-.878h-1.756zM74.34.878v16.976c0 .387-.489.878-.878.878h-1.756c-.388 0-.878-.49-.878-.878V.878c0-.387.49-.878.878-.878h1.756c.389 0 .878.49.878.878z"/>
</svg>
